<?xml version="1.0" standalone="no"?>
<!DOCTYPE svg PUBLIC "-//W3C//DTD SVG 20010904//EN"
 "http://www.w3.org/TR/2001/REC-SVG-20010904/DTD/svg10.dtd">
<svg version="1.0" xmlns="http://www.w3.org/2000/svg"
 width="260.000000pt" height="260.000000pt" viewBox="0 0 260.000000 260.000000"
 preserveAspectRatio="xMidYMid meet">
<metadata>
Created by potrace 1.14, written by Peter Selinger 2001-2017
</metadata>
<g transform="translate(0.000000,260.000000) scale(0.100000,-0.100000)"
fill="#000000" stroke="none">
<path d="M0 1300 l0 -1300 1300 0 1300 0 0 1300 0 1300 -1300 0 -1300 0 0
-1300z m1433 888 c26 -1 47 -6 47 -10 0 -4 9 -8 20 -8 11 0 20 -4 20 -10 0 -5
8 -10 18 -10 10 0 24 -9 32 -20 8 -11 18 -20 23 -20 14 0 32 -22 48 -57 7 -18
17 -33 21 -33 5 0 8 -13 8 -30 0 -16 5 -30 10 -30 6 0 10 -13 10 -30 0 -16 5
-30 10 -30 6 0 10 -28 10 -65 0 -37 4 -65 10 -65 6 0 10 -9 10 -20 0 -11 -4
-20 -10 -20 -5 0 -10 -9 -10 -20 0 -11 5 -20 10 -20 6 0 10 -20 10 -45 0 -25
-4 -45 -10 -45 -5 0 -10 -13 -10 -30 0 -16 5 -30 10 -30 6 0 10 -9 10 -20 0
-11 -4 -20 -10 -20 -5 0 -10 -20 -10 -45 l0 -45 44 0 c25 0 48 -5 52 -12 11
-17 6 -190 -6 -202 -14 -14 -13 -119 1 -133 17 -17 1 -52 -27 -59 -13 -3 -24
-12 -24 -20 0 -8 -9 -14 -19 -14 -11 0 -22 -6 -25 -12 -5 -10 -7 -10 -12 0 -9
19 -24 14 -24 -8 0 -11 -4 -20 -10 -20 -5 0 -10 -13 -10 -30 0 -16 -4 -30 -10
-30 -5 0 -10 -10 -10 -23 0 -13 -5 -28 -11 -34 -8 -8 -12 -61 -11 -157 0 -80
-3 -146 -8 -146 -5 0 -11 -8 -15 -18 -8 -28 -48 -42 -144 -53 -102 -12 -123
-7 -92 20 13 12 21 30 21 51 0 23 9 41 35 66 20 19 40 32 45 29 6 -4 10 -1 10
5 0 6 -14 8 -37 4 -28 -4 -52 1 -88 17 -27 13 -53 22 -57 21 -5 -1 -8 4 -8 11
0 7 -9 19 -20 27 -25 18 -26 58 -2 76 20 16 122 19 122 4 0 -5 12 -10 26 -10
22 0 24 3 18 22 -14 47 -55 68 -128 68 -30 0 -58 5 -61 10 -3 6 -1 10 5 10 6
0 8 5 5 10 -4 6 38 10 119 10 77 0 126 4 126 10 0 6 -9 10 -20 10 -11 0 -20 5
-20 10 0 6 -42 10 -106 10 -119 0 -145 11 -123 52 25 49 79 78 79 43 0 -8 5
-15 10 -15 6 0 10 -9 10 -20 0 -11 5 -20 10 -20 6 0 10 20 10 45 0 34 4 45 16
45 15 0 44 23 44 34 0 3 -18 6 -40 6 -22 0 -40 5 -40 10 0 6 -9 10 -20 10 -18
0 -25 10 -21 33 0 4 -4 7 -9 7 -13 0 -13 167 0 175 6 3 10 23 9 43 0 32 -6 41
-45 70 -24 17 -53 32 -64 32 -10 0 -22 5 -25 10 -3 6 -17 10 -31 10 -13 0 -24
5 -24 10 0 6 -9 10 -20 10 -11 0 -20 5 -20 10 0 6 -7 10 -16 10 -8 0 -12 5 -9
10 3 6 15 10 27 10 15 0 18 4 13 18 -11 23 -10 218 0 262 11 46 27 60 70 60
33 0 37 2 32 23 -2 12 -8 30 -12 40 -5 12 -2 17 9 17 9 0 20 -8 23 -17 4 -10
12 -24 19 -30 15 -15 120 -17 129 -3 3 6 1 10 -4 10 -6 0 -11 7 -11 16 0 8 -4
12 -10 9 -11 -7 -14 48 -3 59 12 11 12 36 1 43 -7 3 -8 1 -4 -5 5 -8 -3 -12
-23 -12 -32 0 -34 -4 -44 -70 -3 -17 -5 -14 -6 12 -1 45 -16 56 -42 32 -18
-16 -19 -16 -20 7 0 13 0 48 1 77 1 31 -3 52 -9 52 -6 0 -11 -18 -11 -40 0
-22 -5 -40 -11 -40 -6 0 -9 19 -7 47 l3 48 55 12 c30 6 89 10 130 7 41 -2 96
-5 123 -6z m-393 -718 c0 -5 -4 -10 -10 -10 -5 0 -10 5 -10 10 0 6 5 10 10 10
6 0 10 -4 10 -10z m15 -110 c4 -6 -5 -10 -19 -10 -14 0 -26 5 -26 10 0 6 9 10
19 10 11 0 23 -4 26 -10z m102 -10 c-1 -11 -5 -20 -9 -20 -10 0 -10 4 -2 24 8
22 13 20 11 -4z m-37 -10 c0 -5 -9 -10 -20 -10 -11 0 -20 5 -20 10 0 6 9 10
20 10 11 0 20 -4 20 -10z m33 -67 c-8 -3 -13 -22 -13 -47 l0 -42 -60 -2 c-35
-1 -60 2 -60 8 0 6 -7 10 -15 10 -8 0 -15 9 -15 20 0 11 -4 20 -10 20 -5 0
-10 5 -10 11 0 5 5 7 10 4 6 -3 10 -2 10 4 0 6 32 12 73 14 39 1 79 4 87 4 10
1 10 0 3 -4z m-303 -203 c0 -5 -4 -10 -10 -10 -5 0 -10 5 -10 10 0 6 5 10 10
10 6 0 10 -4 10 -10z m0 -51 c0 -11 5 -17 10 -14 6 3 10 -2 10 -11 0 -16 -1
-16 -20 1 -21 19 -27 45 -10 45 6 0 10 -9 10 -21z m80 -39 c0 -5 -4 -10 -10
-10 -5 0 -10 5 -10 10 0 6 5 10 10 10 6 0 10 -4 10 -10z"/>
<path d="M1500 1470 c0 -5 -13 -10 -29 -10 -17 0 -33 -4 -36 -10 -9 -14 -42
-12 -49 3 -5 10 -7 10 -12 0 -3 -7 -15 -13 -27 -14 -12 0 -16 -3 -9 -6 6 -2
12 -11 12 -19 0 -7 11 -16 25 -20 14 -3 25 -10 25 -15 0 -5 14 -9 30 -9 17 0
30 -4 30 -10 0 -5 -11 -10 -25 -10 -30 0 -31 -10 -6 -38 14 -17 30 -22 65 -22
25 0 46 5 46 10 0 6 -9 10 -20 10 -11 0 -20 5 -20 10 0 6 -9 10 -21 10 -11 0
-17 5 -14 10 3 6 20 10 36 10 17 0 37 6 45 14 15 15 19 47 7 45 -21 -3 -33 3
-33 17 0 8 5 12 10 9 9 -6 12 1 9 23 -1 4 -5 6 -10 5 -5 -2 -9 2 -9 7 0 6 -4
10 -10 10 -5 0 -10 -4 -10 -10z"/>
<path d="M1761 1353 c-18 -20 -6 -29 14 -10 8 9 12 18 8 20 -5 3 -14 -2 -22
-10z"/>
<path d="M1690 1050 c0 -5 5 -10 10 -10 6 0 10 -11 10 -25 0 -14 -4 -25 -10
-25 -5 0 -10 7 -10 15 0 8 -4 15 -10 15 -15 0 -12 -19 4 -36 17 -16 46 -9 46
12 0 8 5 14 10 14 16 0 12 22 -7 36 -21 16 -43 18 -43 4z"/>
</g>
</svg>
